<?xml version="1.0" standalone="no"?>
<!DOCTYPE svg PUBLIC "-//W3C//DTD SVG 20010904//EN"
 "http://www.w3.org/TR/2001/REC-SVG-20010904/DTD/svg10.dtd">
<svg version="1.0" xmlns="http://www.w3.org/2000/svg"
 width="1002.000000pt" height="565.000000pt" viewBox="0 0 1002.000000 565.000000"
 preserveAspectRatio="xMidYMid meet">
<metadata>
Created by potrace 1.16, written by Peter Selinger 2001-2019
</metadata>
<g transform="translate(0.000000,565.000000) scale(0.100000,-0.100000)"
fill="#000000" stroke="none">
<path d="M3898 4385 c-3 -3 5 -51 18 -106 l24 -101 0 -1419 0 -1419 165 0 165
0 2 542 3 541 405 -541 405 -541 193 -1 c123 0 192 4 190 10 -1 5 -196 264
-431 576 -424 559 -429 566 -410 586 10 12 179 197 375 412 197 215 358 394
358 399 0 4 -76 7 -168 7 l-169 0 -374 -412 -374 -412 -3 942 -2 942 -183 0
c-101 0 -186 -2 -189 -5z" fill="#A4343A"/>
<path d="M1335 3852 l-320 -167 3 -910 c1 -500 4 -911 7 -913 2 -2 403 -58
890 -123 l887 -120 18 23 c9 13 108 140 218 282 189 245 201 262 206 310 3 28
24 380 46 781 22 402 42 760 45 796 l6 67 -58 6 c-59 7 -1618 136 -1624 136
-2 -1 -148 -76 -324 -168z" fill="#A4343A"/>
<path d="M5999 3788 c-78 -302 -195 -461 -371 -504 l-68 -17 0 -93 0 -93 148
-3 147 -3 5 -720 c5 -709 6 -721 27 -785 69 -203 203 -280 466 -268 105 5 319
48 340 67 4 5 -4 56 -19 115 -22 87 -30 106 -43 102 -42 -13 -199 -36 -245
-36 -61 0 -124 27 -154 64 -47 61 -47 60 -47 781 l0 680 225 5 224 5 28 95
c15 52 30 107 33 123 l7 27 -261 0 -262 0 6 68 c12 133 55 387 81 475 5 15 -5
17 -118 17 l-123 0 -26 -102z" fill="#A4343A"/>
<path d="M7864 3360 c-137 -25 -258 -89 -375 -198 l-77 -73 -12 58 c-12 64
-45 170 -59 192 -8 12 -30 11 -147 -3 -77 -9 -153 -19 -171 -22 l-32 -5 30
-60 c34 -69 63 -172 78 -284 7 -51 11 -481 11 -1281 l0 -1204 190 0 190 0 -6
28 c-3 15 -15 62 -25 104 -18 70 -19 112 -17 464 l3 386 40 -32 c177 -141 501
-179 761 -90 264 91 473 364 550 720 22 103 30 357 14 473 -34 251 -140 478
-294 632 -136 135 -278 194 -486 200 -63 2 -138 0 -166 -5z m230 -311 c128
-43 215 -130 290 -291 24 -51 51 -124 60 -161 66 -272 21 -622 -105 -818 -36
-57 -126 -142 -178 -169 -60 -30 -154 -50 -238 -50 -199 0 -339 84 -419 253
-59 126 -64 166 -64 613 l0 401 68 64 c102 99 179 147 274 174 76 21 224 14
312 -16z" fill="#A4343A"/>
</g>
</svg>
