<svg version="1.1" id="Layer_1" xmlns="http://www.w3.org/2000/svg" xmlns:xlink="http://www.w3.org/1999/xlink" x="0px" y="0px"
	 width="100%" viewBox="0 0 5000 2813" enable-background="new 0 0 5000 2813" xml:space="preserve">
<path fill="#FFFFFF" opacity="1.000000" stroke="none" 
	d="
M3276.000000,2816.000000 
	C2184.000000,2816.000000 1093.000000,2816.000000 2.000000,2816.000000 
	C2.000000,1878.000000 2.000000,940.000000 2.000000,2.000000 
	C1668.666626,2.000000 3335.333252,2.000000 5002.000000,2.000000 
	C5002.000000,940.000000 5002.000000,1878.000000 5002.000000,2816.000000 
	C4427.000000,2816.000000 3852.000000,2816.000000 3276.000000,2816.000000 
M878.327393,1598.655518 
	C802.482178,1510.426270 780.553650,1410.473389 816.058411,1299.563843 
	C849.847778,1194.012939 944.794067,1115.499023 1054.634399,1099.648926 
	C1069.376343,1097.521606 1084.284180,1096.544678 1099.483887,1094.997437 
	C1099.483887,995.620972 1099.483887,896.189453 1099.483887,796.770508 
	C926.599854,793.172180 709.103394,880.182800 584.835754,1087.758179 
	C462.250366,1292.523560 472.180054,1551.414307 613.234314,1747.459839 
	C748.108093,1934.915405 957.912598,2000.175171 1099.383301,1994.913696 
	C1099.383301,1895.476318 1099.383301,1796.038452 1099.383301,1697.446533 
	C1080.484131,1695.242676 1062.148560,1694.172729 1044.238892,1690.824829 
	C979.306335,1678.686768 924.530151,1647.706787 878.327393,1598.655518 
M3396.010010,1118.985229 
	C3324.437500,1223.372925 3252.866455,1327.761841 3181.290527,1432.147339 
	C3166.410645,1453.848267 3151.480225,1475.514771 3136.653564,1497.252197 
	C3134.093994,1501.004517 3131.687988,1504.369507 3125.779297,1500.791016 
	C3125.779297,1349.209106 3125.779297,1197.382080 3125.779297,1045.284180 
	C3074.748535,1045.284180 3024.539551,1045.284180 2973.908203,1045.284180 
	C2973.908203,1287.805664 2973.908203,1529.873779 2973.908203,1772.506836 
	C2977.821289,1772.506836 2981.105225,1772.506836 2984.388916,1772.506836 
	C3021.053711,1772.506836 3057.722900,1772.211914 3094.380615,1772.724243 
	C3103.006592,1772.844727 3107.994385,1770.242310 3112.929688,1763.077026 
	C3214.012451,1616.325073 3315.388184,1469.775024 3416.710449,1323.187866 
	C3418.225098,1320.996704 3419.515625,1318.538940 3421.434814,1316.776123 
	C3422.824707,1315.499268 3425.083008,1315.167969 3428.288086,1313.878052 
	C3428.288086,1467.633179 3428.288086,1619.800293 3428.288086,1771.885010 
	C3450.467041,1773.765015 3574.244873,1772.952515 3581.270996,1771.026489 
	C3581.270996,1529.170654 3581.270996,1287.379028 3581.270996,1044.830933 
	C3577.340332,1044.830933 3574.058594,1044.830933 3570.776855,1044.830933 
	C3532.778809,1044.830933 3494.779053,1045.007446 3456.783936,1044.672607 
	C3449.719971,1044.610474 3445.328857,1046.514893 3441.315674,1052.599731 
	C3426.831299,1074.561401 3411.696777,1096.094482 3396.010010,1118.985229 
M2144.999756,1772.507202 
	C2207.311035,1772.507202 2269.623047,1772.698486 2331.932861,1772.395142 
	C2351.558838,1772.299561 2371.259033,1771.729126 2390.783203,1769.877563 
	C2426.176025,1766.521240 2460.040283,1757.416626 2491.546143,1740.274658 
	C2527.673828,1720.618042 2556.201172,1693.678711 2573.980469,1656.158325 
	C2591.187256,1619.846558 2595.337158,1581.631348 2590.282471,1542.124634 
	C2580.667969,1466.980835 2525.944336,1409.750244 2451.416016,1396.997803 
	C2445.309570,1395.952759 2439.093506,1395.548096 2433.029785,1394.857422 
	C2432.058105,1390.789062 2432.113770,1388.066284 2436.048340,1386.994507 
	C2439.256348,1386.120728 2442.468506,1385.260254 2445.661377,1384.334351 
	C2476.358154,1375.432617 2503.012695,1359.732788 2525.259766,1336.732056 
	C2548.197754,1313.016846 2559.710449,1284.226074 2562.854980,1251.710327 
	C2567.102051,1207.790039 2559.131836,1166.796631 2533.378662,1130.251343 
	C2510.157959,1097.299927 2478.692627,1075.287231 2440.811035,1062.198364 
	C2411.978027,1052.235962 2382.165039,1046.263428 2351.779297,1046.007568 
	C2246.494873,1045.121338 2141.202881,1045.151611 2035.913574,1044.886475 
	C2034.400757,1044.882568 2032.886230,1045.567505 2031.591553,1045.878296 
	C2031.591553,1288.265015 2031.591553,1530.044067 2031.591553,1772.507202 
	C2069.101318,1772.507202 2106.050537,1772.507202 2144.999756,1772.507202 
M1930.053955,1045.031250 
	C1926.390869,1044.962280 1922.727905,1044.833740 1919.064819,1044.833252 
	C1840.076660,1044.821655 1761.088501,1044.824463 1682.100342,1044.824463 
	C1570.117065,1044.824463 1458.133789,1044.821533 1346.150513,1044.837402 
	C1342.320190,1044.837891 1338.489990,1045.029419 1334.933960,1045.124512 
	C1334.933960,1088.007324 1334.933960,1129.528442 1334.933960,1172.012207 
	C1409.347656,1172.012207 1483.160400,1172.012207 1557.569092,1172.012207 
	C1557.569092,1372.557251 1557.569092,1572.132690 1557.569092,1772.020020 
	C1608.355835,1772.020020 1658.535400,1772.020020 1709.789551,1772.020020 
	C1709.789551,1571.794067 1709.789551,1372.056641 1709.789551,1171.527588 
	C1784.359619,1171.527588 1857.857666,1171.527588 1932.159058,1171.527588 
	C1932.159058,1167.479492 1932.159058,1164.219971 1932.159058,1160.960571 
	C1932.159058,1127.298950 1932.180298,1093.637329 1932.134888,1059.975708 
	C1932.128662,1055.332520 1931.793091,1050.689941 1930.053955,1045.031250 
M3927.000488,1044.824463 
	C3854.694580,1044.964111 3782.388672,1045.103271 3710.082764,1045.267334 
	C3709.810303,1045.267944 3709.519043,1045.606812 3709.272461,1045.827637 
	C3709.040039,1046.035278 3708.854736,1046.295776 3708.884766,1046.261108 
	C3708.884766,1288.357178 3708.884766,1530.180908 3708.884766,1772.511230 
	C3760.300293,1772.510376 3811.081543,1772.517456 3862.577637,1772.506348 
	C3862.577637,1571.513794 3862.577637,1372.017700 3862.577637,1171.548096 
	C3972.420410,1171.548096 4081.542480,1171.548096 4191.061523,1171.548096 
	C4191.061523,1129.062012 4191.061523,1087.552246 4191.061523,1044.824463 
	C4103.430176,1044.824463 4016.215332,1044.824463 3927.000488,1044.824463 
M2692.150635,1693.000000 
	C2692.150635,1719.233276 2692.150635,1745.466675 2692.150635,1771.885010 
	C2743.940674,1771.885010 2794.712158,1771.885010 2845.607910,1771.885010 
	C2845.607910,1529.434204 2845.607910,1287.607788 2845.607910,1045.477295 
	C2794.311279,1045.477295 2743.498047,1045.477295 2692.150635,1045.477295 
	C2692.150635,1261.084106 2692.150635,1476.041992 2692.150635,1693.000000 
M4290.003906,1069.039307 
	C4290.003906,1303.255615 4290.003906,1537.471924 4290.003906,1771.878906 
	C4341.764648,1771.878906 4392.533203,1771.878906 4443.446777,1771.878906 
	C4443.446777,1529.430176 4443.446777,1287.612183 4443.446777,1045.477051 
	C4392.139648,1045.477051 4341.332031,1045.477051 4290.003906,1045.477051 
	C4290.003906,1053.098999 4290.003906,1060.079712 4290.003906,1069.039307 
M1100.053589,1349.000000 
	C1100.053589,1314.833862 1100.053589,1280.667725 1100.053589,1246.539917 
	C1047.742798,1245.782349 994.069031,1274.127075 967.857056,1325.375000 
	C939.371216,1381.068604 943.392090,1435.690796 980.352478,1486.206909 
	C1009.436523,1525.957886 1050.124756,1544.805054 1100.053589,1546.021606 
	C1100.053589,1480.147705 1100.053589,1415.573853 1100.053589,1349.000000 
M3228.462402,904.776001 
	C3213.197754,891.632874 3207.077148,874.188843 3205.660889,854.719482 
	C3170.808350,854.719482 3136.638184,854.719482 3102.156006,854.719482 
	C3101.021240,866.189331 3102.531006,877.005249 3105.103271,887.621948 
	C3116.725586,935.593201 3147.919434,966.112244 3192.568115,983.979797 
	C3220.121094,995.006104 3249.121094,998.301575 3278.664551,998.153320 
	C3306.854248,998.011902 3334.441162,994.499512 3360.797607,984.166931 
	C3400.119385,968.751343 3429.453125,942.810547 3444.530273,902.506897 
	C3450.248291,887.221985 3453.149658,871.398254 3452.137695,854.764404 
	C3417.046875,854.764404 3382.606689,854.764404 3348.015869,854.764404 
	C3347.560303,857.521729 3347.151611,859.797119 3346.811035,862.082581 
	C3341.892334,895.086487 3324.951904,912.797668 3291.976807,917.099976 
	C3270.262207,919.933105 3248.680176,918.787842 3228.462402,904.776001 
z"/>
<path fill="#DB261D" opacity="1.000000" stroke="none" 
	d="
M878.816223,1599.165039 
	C924.530151,1647.706787 979.306335,1678.686768 1044.238892,1690.824829 
	C1062.148560,1694.172729 1080.484131,1695.242676 1099.383301,1697.446533 
	C1099.383301,1796.038452 1099.383301,1895.476318 1099.383301,1994.913696 
	C957.912598,2000.175171 748.108093,1934.915405 613.234314,1747.459839 
	C472.180054,1551.414307 462.250366,1292.523560 584.835754,1087.758179 
	C709.103394,880.182800 926.599854,793.172180 1099.483887,796.770508 
	C1099.483887,896.189453 1099.483887,995.620972 1099.483887,1094.997437 
	C1084.284180,1096.544678 1069.376343,1097.521606 1054.634399,1099.648926 
	C944.794067,1115.499023 849.847778,1194.012939 816.058411,1299.563843 
	C780.553650,1410.473389 802.482178,1510.426270 878.816223,1599.165039 
z"/>
<path fill="#010101" opacity="1.000000" stroke="none" 
	d="
M3396.408936,1118.387329 
	C3411.696777,1096.094482 3426.831299,1074.561401 3441.315674,1052.599731 
	C3445.328857,1046.514893 3449.719971,1044.610474 3456.783936,1044.672607 
	C3494.779053,1045.007446 3532.778809,1044.830933 3570.776855,1044.830933 
	C3574.058594,1044.830933 3577.340332,1044.830933 3581.270996,1044.830933 
	C3581.270996,1287.379028 3581.270996,1529.170654 3581.270996,1771.026489 
	C3574.244873,1772.952515 3450.467041,1773.765015 3428.288086,1771.885010 
	C3428.288086,1619.800293 3428.288086,1467.633179 3428.288086,1313.878052 
	C3425.083008,1315.167969 3422.824707,1315.499268 3421.434814,1316.776123 
	C3419.515625,1318.538940 3418.225098,1320.996704 3416.710449,1323.187866 
	C3315.388184,1469.775024 3214.012451,1616.325073 3112.929688,1763.077026 
	C3107.994385,1770.242310 3103.006592,1772.844727 3094.380615,1772.724243 
	C3057.722900,1772.211914 3021.053711,1772.506836 2984.388916,1772.506836 
	C2981.105225,1772.506836 2977.821289,1772.506836 2973.908203,1772.506836 
	C2973.908203,1529.873779 2973.908203,1287.805664 2973.908203,1045.284180 
	C3024.539551,1045.284180 3074.748535,1045.284180 3125.779297,1045.284180 
	C3125.779297,1197.382080 3125.779297,1349.209106 3125.779297,1500.791016 
	C3131.687988,1504.369507 3134.093994,1501.004517 3136.653564,1497.252197 
	C3151.480225,1475.514771 3166.410645,1453.848267 3181.290527,1432.147339 
	C3252.866455,1327.761841 3324.437500,1223.372925 3396.408936,1118.387329 
z"/>
<path fill="#010101" opacity="1.000000" stroke="none" 
	d="
M2143.999512,1772.507202 
	C2106.050537,1772.507202 2069.101318,1772.507202 2031.591553,1772.507202 
	C2031.591553,1530.044067 2031.591553,1288.265015 2031.591553,1045.878296 
	C2032.886230,1045.567505 2034.400757,1044.882568 2035.913574,1044.886475 
	C2141.202881,1045.151611 2246.494873,1045.121338 2351.779297,1046.007568 
	C2382.165039,1046.263428 2411.978027,1052.235962 2440.811035,1062.198364 
	C2478.692627,1075.287231 2510.157959,1097.299927 2533.378662,1130.251343 
	C2559.131836,1166.796631 2567.102051,1207.790039 2562.854980,1251.710327 
	C2559.710449,1284.226074 2548.197754,1313.016846 2525.259766,1336.732056 
	C2503.012695,1359.732788 2476.358154,1375.432617 2445.661377,1384.334351 
	C2442.468506,1385.260254 2439.256348,1386.120728 2436.048340,1386.994507 
	C2432.113770,1388.066284 2432.058105,1390.789062 2433.029785,1394.857422 
	C2439.093506,1395.548096 2445.309570,1395.952759 2451.416016,1396.997803 
	C2525.944336,1409.750244 2580.667969,1466.980835 2590.282471,1542.124634 
	C2595.337158,1581.631348 2591.187256,1619.846558 2573.980469,1656.158325 
	C2556.201172,1693.678711 2527.673828,1720.618042 2491.546143,1740.274658 
	C2460.040283,1757.416626 2426.176025,1766.521240 2390.783203,1769.877563 
	C2371.259033,1771.729126 2351.558838,1772.299561 2331.932861,1772.395142 
	C2269.623047,1772.698486 2207.311035,1772.507202 2143.999512,1772.507202 
M2407.009277,1488.001831 
	C2384.343750,1464.630615 2355.808838,1454.806396 2324.184570,1454.220947 
	C2279.229248,1453.388550 2234.249023,1453.865723 2189.279541,1453.820679 
	C2188.044434,1453.819458 2186.808838,1454.244263 2185.490723,1454.485596 
	C2185.490723,1518.637207 2185.490723,1582.379395 2185.490723,1646.488159 
	C2187.744385,1646.635986 2189.361328,1646.833984 2190.978271,1646.834473 
	C2230.285889,1646.847900 2269.593994,1646.966919 2308.900879,1646.787231 
	C2331.261719,1646.685059 2353.535645,1645.162354 2374.901367,1637.834595 
	C2404.855957,1627.561523 2425.114014,1607.514160 2431.391357,1576.150269 
	C2437.884033,1543.707275 2430.942871,1513.986694 2407.009277,1488.001831 
M2205.093262,1349.781982 
	C2235.052979,1349.781372 2265.019287,1350.146362 2294.969238,1349.605957 
	C2307.538574,1349.379272 2320.345947,1348.460083 2332.574707,1345.740845 
	C2373.646973,1336.607056 2412.192871,1307.168823 2408.225830,1249.621338 
	C2406.415039,1223.357056 2394.894287,1202.616577 2373.104004,1187.787354 
	C2355.516357,1175.818359 2335.572754,1170.520996 2314.697021,1170.159790 
	C2272.766113,1169.434326 2230.817383,1169.713013 2188.875977,1169.628296 
	C2187.684814,1169.625977 2186.492676,1170.202393 2185.516602,1170.453491 
	C2185.516602,1230.476318 2185.516602,1289.896362 2185.516602,1349.781982 
	C2191.850342,1349.781982 2197.492920,1349.781982 2205.093262,1349.781982 
z"/>
<path fill="#020202" opacity="1.000000" stroke="none" 
	d="
M1930.832031,1045.539062 
	C1931.793091,1050.689941 1932.128662,1055.332520 1932.134888,1059.975708 
	C1932.180298,1093.637329 1932.159058,1127.298950 1932.159058,1160.960571 
	C1932.159058,1164.219971 1932.159058,1167.479492 1932.159058,1171.527588 
	C1857.857666,1171.527588 1784.359619,1171.527588 1709.789551,1171.527588 
	C1709.789551,1372.056641 1709.789551,1571.794067 1709.789551,1772.020020 
	C1658.535400,1772.020020 1608.355835,1772.020020 1557.569092,1772.020020 
	C1557.569092,1572.132690 1557.569092,1372.557251 1557.569092,1172.012207 
	C1483.160400,1172.012207 1409.347656,1172.012207 1334.933960,1172.012207 
	C1334.933960,1129.528442 1334.933960,1088.007324 1334.933960,1045.124512 
	C1338.489990,1045.029419 1342.320190,1044.837891 1346.150513,1044.837402 
	C1458.133789,1044.821533 1570.117065,1044.824463 1682.100342,1044.824463 
	C1761.088501,1044.824463 1840.076660,1044.821655 1919.064819,1044.833252 
	C1922.727905,1044.833740 1926.390869,1044.962280 1930.832031,1045.539062 
z"/>
<path fill="#020202" opacity="1.000000" stroke="none" 
	d="
M3928.000488,1044.824463 
	C4016.215332,1044.824463 4103.430176,1044.824463 4191.061523,1044.824463 
	C4191.061523,1087.552246 4191.061523,1129.062012 4191.061523,1171.548096 
	C4081.542480,1171.548096 3972.420410,1171.548096 3862.577637,1171.548096 
	C3862.577637,1372.017700 3862.577637,1571.513794 3862.577637,1772.506348 
	C3811.081543,1772.517456 3760.300293,1772.510376 3708.884766,1772.511230 
	C3708.884766,1530.180908 3708.884766,1288.357178 3708.884766,1046.261108 
	C3708.854736,1046.295776 3709.040039,1046.035278 3709.272461,1045.827637 
	C3709.519043,1045.606812 3709.810303,1045.267944 3710.082764,1045.267334 
	C3782.388672,1045.103271 3854.694580,1044.964111 3928.000488,1044.824463 
z"/>
<path fill="#010101" opacity="1.000000" stroke="none" 
	d="
M2692.150635,1692.000000 
	C2692.150635,1476.041992 2692.150635,1261.084106 2692.150635,1045.477295 
	C2743.498047,1045.477295 2794.311279,1045.477295 2845.607910,1045.477295 
	C2845.607910,1287.607788 2845.607910,1529.434204 2845.607910,1771.885010 
	C2794.712158,1771.885010 2743.940674,1771.885010 2692.150635,1771.885010 
	C2692.150635,1745.466675 2692.150635,1719.233276 2692.150635,1692.000000 
z"/>
<path fill="#010101" opacity="1.000000" stroke="none" 
	d="
M4290.003906,1068.049927 
	C4290.003906,1060.079712 4290.003906,1053.098999 4290.003906,1045.477051 
	C4341.332031,1045.477051 4392.139648,1045.477051 4443.446777,1045.477051 
	C4443.446777,1287.612183 4443.446777,1529.430176 4443.446777,1771.878906 
	C4392.533203,1771.878906 4341.764648,1771.878906 4290.003906,1771.878906 
	C4290.003906,1537.471924 4290.003906,1303.255615 4290.003906,1068.049927 
z"/>
<path fill="#DB271E" opacity="1.000000" stroke="none" 
	d="
M1100.053589,1350.000000 
	C1100.053589,1415.573853 1100.053589,1480.147705 1100.053589,1546.021606 
	C1050.124756,1544.805054 1009.436523,1525.957886 980.352478,1486.206909 
	C943.392090,1435.690796 939.371216,1381.068604 967.857056,1325.375000 
	C994.069031,1274.127075 1047.742798,1245.782349 1100.053589,1246.539917 
	C1100.053589,1280.667725 1100.053589,1314.833862 1100.053589,1350.000000 
z"/>
<path fill="#030202" opacity="1.000000" stroke="none" 
	d="
M3229.026855,905.236206 
	C3248.680176,918.787842 3270.262207,919.933105 3291.976807,917.099976 
	C3324.951904,912.797668 3341.892334,895.086487 3346.811035,862.082581 
	C3347.151611,859.797119 3347.560303,857.521729 3348.015869,854.764404 
	C3382.606689,854.764404 3417.046875,854.764404 3452.137695,854.764404 
	C3453.149658,871.398254 3450.248291,887.221985 3444.530273,902.506897 
	C3429.453125,942.810547 3400.119385,968.751343 3360.797607,984.166931 
	C3334.441162,994.499512 3306.854248,998.011902 3278.664551,998.153320 
	C3249.121094,998.301575 3220.121094,995.006104 3192.568115,983.979797 
	C3147.919434,966.112244 3116.725586,935.593201 3105.103271,887.621948 
	C3102.531006,877.005249 3101.021240,866.189331 3102.156006,854.719482 
	C3136.638184,854.719482 3170.808350,854.719482 3205.660889,854.719482 
	C3207.077148,874.188843 3213.197754,891.632874 3229.026855,905.236206 
z"/>
<path fill="#FDFDFD" opacity="1.000000" stroke="none" 
	d="
M2407.510498,1488.500488 
	C2430.942871,1513.986694 2437.884033,1543.707275 2431.391357,1576.150269 
	C2425.114014,1607.514160 2404.855957,1627.561523 2374.901367,1637.834595 
	C2353.535645,1645.162354 2331.261719,1646.685059 2308.900879,1646.787231 
	C2269.593994,1646.966919 2230.285889,1646.847900 2190.978271,1646.834473 
	C2189.361328,1646.833984 2187.744385,1646.635986 2185.490723,1646.488159 
	C2185.490723,1582.379395 2185.490723,1518.637207 2185.490723,1454.485596 
	C2186.808838,1454.244263 2188.044434,1453.819458 2189.279541,1453.820679 
	C2234.249023,1453.865723 2279.229248,1453.388550 2324.184570,1454.220947 
	C2355.808838,1454.806396 2384.343750,1464.630615 2407.510498,1488.500488 
z"/>
<path fill="#FDFDFD" opacity="1.000000" stroke="none" 
	d="
M2204.114258,1349.781982 
	C2197.492920,1349.781982 2191.850342,1349.781982 2185.516602,1349.781982 
	C2185.516602,1289.896362 2185.516602,1230.476318 2185.516602,1170.453491 
	C2186.492676,1170.202393 2187.684814,1169.625977 2188.875977,1169.628296 
	C2230.817383,1169.713013 2272.766113,1169.434326 2314.697021,1170.159790 
	C2335.572754,1170.520996 2355.516357,1175.818359 2373.104004,1187.787354 
	C2394.894287,1202.616577 2406.415039,1223.357056 2408.225830,1249.621338 
	C2412.192871,1307.168823 2373.646973,1336.607056 2332.574707,1345.740845 
	C2320.345947,1348.460083 2307.538574,1349.379272 2294.969238,1349.605957 
	C2265.019287,1350.146362 2235.052979,1349.781372 2204.114258,1349.781982 
z"/>
</svg>